<?xml version="1.0" encoding="UTF-8" standalone="no"?>
<!DOCTYPE svg PUBLIC "-//W3C//DTD SVG 1.1//EN" "http://www.w3.org/Graphics/SVG/1.1/DTD/svg11.dtd">
<svg xmlns="http://www.w3.org/2000/svg" version="1.1" viewBox="0.00 0.00 417.00 104.00">
<path fill="#ffffff" d="
  M 219.44 0.00
  L 261.50 0.00
  L 262.44 0.34
  Q 262.97 0.52 262.97 1.08
  L 263.02 11.36
  A 0.64 0.63 90.0 0 1 262.39 12.00
  L 219.52 12.00
  Q 219.10 12.00 219.11 11.58
  L 219.44 0.00
  Z"
/>
<path fill="#ffffff" d="
  M 86.99 104.00
  L 50.03 104.00
  L 50.02 42.87
  A 0.90 0.90 0.0 0 0 49.12 41.97
  L 0.00 41.83
  L 0.00 30.74
  Q 0.01 29.02 2.25 29.01
  Q 68.95 28.95 136.25 29.03
  A 0.75 0.75 0.0 0 1 137.00 29.78
  L 136.99 41.50
  Q 136.99 42.00 136.50 42.00
  L 87.52 42.00
  Q 87.02 42.00 87.02 42.50
  L 86.99 104.00
  Z"
/>
<rect fill="#ffffff" x="188.02" y="29.00" width="74.98" height="13.00" rx="1.04"/>
<path fill="#ffffff" d="
  M 417.00 29.11
  L 417.00 41.97
  Q 384.58 42.04 352.20 41.98
  C 344.80 41.97 338.63 42.49 335.40 49.10
  Q 333.95 52.09 333.92 58.57
  Q 333.89 66.40 333.93 74.28
  Q 333.95 81.02 335.43 84.06
  Q 338.77 90.94 348.01 90.95
  Q 382.51 90.98 417.00 91.07
  L 417.00 104.00
  L 338.26 104.00
  C 323.62 102.16 308.25 99.38 299.66 86.13
  C 289.99 71.24 293.09 48.75 307.72 38.05
  C 317.42 30.96 332.21 29.26 344.25 29.16
  Q 380.62 28.87 417.00 29.11
  Z"
/>
<path fill="#ffffff" d="
  M 262.76 104.00
  L 151.06 104.00
  L 151.03 43.47
  A 0.47 0.47 0.0 0 1 151.50 42.99
  L 187.26 43.02
  A 0.74 0.73 90.0 0 1 187.99 43.76
  L 187.99 57.74
  A 2.25 2.25 0.0 0 0 190.24 59.99
  L 262.03 60.00
  A 1.02 1.02 0.0 0 1 263.05 61.03
  L 263.00 71.25
  A 0.75 0.75 0.0 0 1 262.25 72.00
  L 188.50 72.00
  Q 187.99 72.00 187.99 72.50
  L 187.95 90.48
  Q 187.95 91.00 188.48 91.00
  L 262.04 91.00
  A 0.86 0.86 0.0 0 1 262.90 91.87
  L 262.76 104.00
  Z"
/>
</svg>
